<?xml version="1.0" standalone="no"?><!DOCTYPE svg PUBLIC "-//W3C//DTD SVG 1.1//EN" "http://www.w3.org/Graphics/SVG/1.1/DTD/svg11.dtd"><svg t="1675891483293" class="icon" viewBox="0 0 1024 1024" version="1.1" xmlns="http://www.w3.org/2000/svg" p-id="7483" width="200" height="200" xmlns:xlink="http://www.w3.org/1999/xlink"><path d="M748.544 191.7952l1.2288 456.0896-396.3904 229.1712-1.3312-456.0896z" fill="#4674E9" p-id="7484" data-spm-anchor-id="a313x.7781069.0.i5" class=""></path><path d="M353.3824 877.056L274.432 831.1808l-1.2288-456.0896 78.848 45.8752z" fill="#3b82f6" p-id="7485" data-spm-anchor-id="a313x.7781069.0.i6" class="selected"></path><path d="M352.0512 420.9664l-78.848-45.8752 396.3904-229.1712 78.9504 45.8752z" fill="#3b82f6" p-id="7486" data-spm-anchor-id="a313x.7781069.0.i7" class="selected"></path><path d="M353.3824 880.128c-0.512 0-1.024-0.1024-1.536-0.4096-0.9216-0.512-1.536-1.536-1.536-2.6624l-1.3312-456.0896c0-1.1264 0.6144-2.1504 1.536-2.6624l396.4928-229.1712c0.9216-0.512 2.1504-0.512 3.072 0 0.9216 0.512 1.536 1.536 1.536 2.6624l1.3312 456.0896c0 1.1264-0.6144 2.1504-1.536 2.6624L354.9184 879.7184c-0.512 0.3072-1.024 0.4096-1.536 0.4096z m1.7408-457.4208l1.2288 449.024L746.7008 646.144 745.472 197.12 355.1232 422.7072z" fill="#0C2C73" p-id="7487"></path><path d="M353.3824 880.128c-0.512 0-1.1264-0.1024-1.536-0.4096l-78.9504-45.8752c-0.9216-0.512-1.536-1.536-1.536-2.6624l-1.3312-456.0896c0-1.1264 0.6144-2.1504 1.536-2.6624s2.1504-0.512 3.072 0l78.9504 45.8752c0.9216 0.512 1.536 1.536 1.536 2.6624l1.3312 455.68v0.4096c0 1.7408-1.4336 3.072-3.072 3.072zM277.504 829.3376l72.704 42.2912-1.2288-448.9216-72.704-42.2912 1.2288 448.9216z" fill="#0C2C73" p-id="7488"></path><path d="M352.0512 424.0384c-0.512 0-1.024-0.1024-1.536-0.4096l-78.9504-45.8752c-0.9216-0.512-1.536-1.536-1.536-2.6624s0.6144-2.1504 1.536-2.6624l396.4928-229.1712c0.9216-0.512 2.1504-0.512 3.072 0l78.9504 45.8752c0.9216 0.512 1.536 1.536 1.536 2.6624s-0.6144 2.1504-1.536 2.6624L353.5872 423.6288c-0.512 0.3072-1.024 0.4096-1.536 0.4096z m-72.8064-48.9472l72.8064 42.3936L742.4 191.7952 669.5936 149.504 279.2448 375.0912z" fill="#0C2C73" p-id="7489"></path><path d="M521.3184 594.5344L488.448 575.3856 549.7856 468.992l32.8704 19.1488z" fill="#BABABA" p-id="7490"></path><path d="M643.9936 359.2192l-32.9728-19.0464 65.536-37.888 32.8704 19.1488z" fill="#DCDCDC" p-id="7491"></path><path d="M644.4032 523.4688l-32.8704-18.8416-0.512-164.4544 32.9728 19.0464zM456.192 761.4464l-32.9728-19.1488-0.8192-293.1712 32.8704 19.1488z" fill="#999999" p-id="7492"></path><path d="M455.2704 468.2752l-32.8704-19.1488 65.536-37.888 32.8704 19.1488z" fill="#DCDCDC" p-id="7493"></path><path d="M521.3184 597.6064c-0.512 0-1.024-0.1024-1.536-0.4096l-32.8704-19.1488c-1.4336-0.8192-1.9456-2.7648-1.1264-4.1984l61.3376-106.3936c0.4096-0.7168 1.1264-1.2288 1.8432-1.4336 0.8192-0.2048 1.6384-0.1024 2.3552 0.3072l32.8704 19.1488c1.4336 0.8192 1.9456 2.7648 1.1264 4.1984l-61.3376 106.3936c-0.4096 0.7168-1.1264 1.2288-1.8432 1.4336-0.3072 0-0.6144 0.1024-0.8192 0.1024z m-28.672-23.3472l27.5456 16.0768 58.2656-101.0688-27.5456-16.0768-58.2656 101.0688zM643.9936 362.2912c-0.512 0-1.024-0.1024-1.536-0.4096l-32.8704-19.1488c-0.9216-0.512-1.536-1.536-1.536-2.6624s0.6144-2.1504 1.536-2.6624l65.536-37.888c0.9216-0.512 2.1504-0.512 3.072 0l32.8704 19.1488c0.9216 0.512 1.536 1.536 1.536 2.6624s-0.6144 2.1504-1.536 2.6624l-65.536 37.888c-0.512 0.3072-1.024 0.4096-1.536 0.4096z m-26.8288-22.1184l26.7264 15.5648 59.392-34.304-26.7264-15.5648-59.392 34.304z" fill="#555555" p-id="7494"></path><path d="M644.4032 526.5408c-0.512 0-1.1264-0.1024-1.536-0.4096l-32.8704-18.944c-0.9216-0.512-1.536-1.536-1.536-2.6624l-0.512-164.4544c0-1.1264 0.6144-2.1504 1.536-2.6624s2.1504-0.512 3.072 0l32.8704 19.1488c0.9216 0.512 1.536 1.536 1.536 2.6624l0.512 163.84v0.4096c0 1.7408-1.3312 3.072-3.072 3.072zM614.6048 502.784l26.7264 15.36-0.4096-157.184-26.7264-15.5648 0.4096 157.3888zM456.192 764.5184c-0.512 0-1.024-0.1024-1.536-0.4096l-32.8704-19.1488c-0.9216-0.512-1.536-1.536-1.536-2.6624l-0.8192-293.1712c0-1.1264 0.6144-2.1504 1.536-2.6624s2.1504-0.512 3.072 0l32.8704 19.1488c0.9216 0.512 1.536 1.536 1.536 2.6624l0.8192 292.7616v0.4096c0 1.6384-1.4336 3.072-3.072 3.072z m-29.9008-23.9616l26.7264 15.5648-0.8192-286.1056-26.7264-15.5648 0.8192 286.1056z" fill="#555555" p-id="7495"></path><path d="M455.2704 471.3472c-0.512 0-1.024-0.1024-1.536-0.4096L420.864 451.7888c-0.9216-0.512-1.536-1.536-1.536-2.6624s0.6144-2.1504 1.536-2.6624l65.536-37.888c0.9216-0.512 2.1504-0.512 3.072 0l32.8704 19.1488c0.9216 0.512 1.536 1.536 1.536 2.6624s-0.6144 2.1504-1.536 2.6624l-65.536 37.888c-0.4096 0.3072-0.9216 0.4096-1.536 0.4096z m-26.7264-22.2208l26.7264 15.5648 59.392-34.304-26.7264-15.5648-59.392 34.304z" fill="#555555" p-id="7496"></path><path d="M709.4272 321.4336l0.9216 293.0688-65.536 37.888-61.8496-35.6352-61.3376 106.8032-65.4336 37.888-0.9216-293.1712 65.536-37.888 0.512 164.1472L582.656 488.1408l46.4896 26.5216 15.2576 8.8064-0.4096-164.2496z" fill="#FFFFFF" p-id="7497"></path><path d="M456.192 764.5184c-0.512 0-1.024-0.1024-1.536-0.4096-0.9216-0.512-1.536-1.536-1.536-2.6624l-0.8192-293.1712c0-1.1264 0.6144-2.1504 1.536-2.6624l65.536-37.888c0.9216-0.512 2.1504-0.512 3.072 0 0.9216 0.512 1.536 1.536 1.536 2.6624l0.4096 152.6784 55.6032-96.4608c0.8192-1.4336 2.7648-1.9456 4.1984-1.1264l46.4896 26.5216 10.6496 6.144-0.4096-158.9248c0-1.1264 0.6144-2.1504 1.536-2.6624l65.536-37.888c0.9216-0.512 2.1504-0.512 3.072 0 0.9216 0.512 1.536 1.536 1.536 2.6624l0.8192 293.1712c0 1.1264-0.6144 2.1504-1.536 2.6624l-65.536 37.888c-0.9216 0.512-2.1504 0.512-3.072 0l-59.1872-34.0992L524.288 725.0944c-0.3072 0.512-0.6144 0.8192-1.1264 1.1264l-65.536 37.888c-0.4096 0.3072-0.9216 0.4096-1.4336 0.4096z m2.1504-294.5024l0.8192 286.1056 60.2112-34.816 60.8256-106.0864c0.4096-0.7168 1.1264-1.2288 1.8432-1.4336 0.8192-0.2048 1.6384-0.1024 2.3552 0.3072l60.3136 34.816 62.464-36.0448-0.7168-286.208-59.392 34.304 0.4096 162.4064c0 1.1264-0.6144 2.1504-1.536 2.6624s-2.1504 0.512-3.072 0l-15.2576-8.9088-43.8272-24.9856-59.8016 103.7312c-0.7168 1.2288-2.1504 1.8432-3.4816 1.4336-1.3312-0.3072-2.2528-1.536-2.2528-2.9696l-0.4096-158.8224-59.4944 34.5088z" fill="#555555" p-id="7498"></path></svg>