<svg t="1676867007927" class="icon" viewBox="0 0 1024 1024" version="1.1" xmlns="http://www.w3.org/2000/svg" p-id="2136" data-spm-anchor-id="a313x.7781069.0.i0" width="50" height="50"><path d="M922.293597 494.593562c-56.101739-56.383148-130.690528-87.433328-210.032574-87.433328-79.339999 0-153.930835 31.051203-210.030527 87.433328-56.103786 56.383148-86.998423 131.345444-86.998423 211.081463 0 79.741136 30.894637 154.704454 86.998423 211.086579 56.099692 56.385195 130.690528 87.433328 210.030527 87.433328 79.342046 0 153.930835-31.048133 210.032574-87.433328 56.101739-56.383148 86.996376-131.345444 86.996376-211.086579C1009.289973 625.940029 978.395336 550.97671 922.293597 494.593562zM712.261023 947.102632c-132.457778 0-240.219083-108.301612-240.219083-241.426585 0-133.11781 107.761306-241.422492 240.219083-241.422492s240.22113 108.304681 240.22113 241.422492C952.482153 838.801021 844.718801 947.102632 712.261023 947.102632zM682.400948 884.569414l49.103348 0 0-49.349965-49.103348 0L682.400948 884.569414zM787.051403 552.128953c-18.829857-16.914228-42.97579-25.341155-71.935356-25.341155-13.651928 0-26.933419 2.209318-39.772842 6.626931-13.087063 4.501524-24.945135 11.497868-35.501562 20.945031-10.715039 9.586332-18.46249 20.37198-23.104207 32.299637-4.51585 11.610432-7.008624 27.00812-7.634888 46.342468l-0.355087 10.916631 49.640584 0 0.73678-9.769504c3.181459-42.046628 20.686135-61.083194 54.653761-61.083194 15.920598 0 27.999704 4.194532 36.779671 12.412704 8.653077 8.093329 12.935614 18.726503 12.935614 32.618908 0 9.277294-1.731434 16.630772-5.008061 22.193465-3.743254 6.364965-14.078647 18.395976-30.604018 35.447327-17.946744 18.506493-29.742395 34.334993-35.415604 47.90301-5.596462 13.386892-8.655124 29.512151-9.29162 48.351218l-0.369414 10.930957 52.210106 0 0-10.573823c0-17.925255 1.865487-30.411637 5.130857-36.9741 3.450589-6.935969 14.153348-19.259646 31.747051-36.075637 17.639752-16.47216 29.264511-29.744441 34.998095-40.241516 5.965875-10.921747 8.888438-23.714098 8.888438-38.272675C815.777655 592.44517 806.164716 569.300031 787.051403 552.128953zM362.877681 908.006196c-5.207605 4.835122-11.995195 6.14393-18.624173 3.586688-6.623861-2.552126-10.796904-8.091282-11.447726-15.190981l-20.24202-220.656539c-2.566452-28.003797-18.676361-52.93256-43.086307-66.682725L77.135798 500.730329c-6.189979-3.488451-9.526981-9.572006-9.154497-16.693194 0.369414-7.119141 4.324492-12.821003 10.839883-15.635095l202.558345-87.534636c25.704428-11.111059 44.313252-34.208103 49.78487-61.792345l43.081191-217.321584c1.387603-6.994298 6.112208-12.06171 12.960173-13.905708 6.7968-1.829671 13.545504 0.254803 18.155499 5.531993l145.425114 166.550247c18.455327 21.137413 46.066175 31.7931 73.859171 28.496008l218.96399-25.979698c7.051603-0.830925 13.310144 2.117221 17.171078 8.098445 3.862981 5.980201 4.002151 12.924357 0.376577 19.053961l-63.280232 106.972337c22.26612 5.8001 43.588751 13.953803 63.700811 24.165376l57.205886-96.705506c16.659425-28.157293 15.977903-62.71332-1.77646-90.181929-17.764596-27.490098-48.901757-42.174542-81.253582-38.308491l-218.969107 25.972535c-5.874801 0.695848-11.704576-1.553379-15.603373-6.019087L455.751928 48.934502C434.251242 24.315802 401.337621 14.290471 369.857653 22.762423c-31.483038 8.480138-54.994522 33.703613-61.359486 65.828264l-43.084261 217.317491c-1.157359 5.831822-5.087878 10.712993-10.520611 13.05841L52.339042 406.502247c-29.943986 12.94073-49.602721 41.297568-51.309596 74.009597-1.704828 32.709983 14.897292 62.98245 43.328831 78.994122l192.340633 108.333334c5.15951 2.90312 8.562003 8.173147 9.106402 14.08888l20.24202 220.659609c2.991124 32.615838 23.754007 60.171428 54.180993 71.91182 9.872858 3.807722 20.179598 5.740748 30.632671 5.740748 21.288862 0 41.713031-8.076956 57.510832-22.744004l55.222719-51.27378c-13.930267-18.035772-26.004257-37.586037-35.920094-58.380642L362.877681 908.006196z" fill="#65a30d" p-id="2137"></path></svg>